<svg width="51" height="24" viewBox="0 0 51 24" fill="none" xmlns="http://www.w3.org/2000/svg">
  <path d="M50.4023 11.9648C50.4023 18.5742 45.0391 23.9297 38.4297 23.9297C31.8203 23.9297 26.4648 18.5742 26.4648 11.9648C26.4648 5.35547 31.8203 0 38.4297 0C45.0391 0 50.4023 5.35547 50.4023 11.9648Z" fill="#FF5B24"/>
  <path d="M35.7422 15.9961L41.1172 8.00391H43.5938L38.2188 15.9961H35.7422ZM33.2656 15.9961L38.6406 8.00391H41.1172L35.7422 15.9961H33.2656Z" fill="white"/>
  <path d="M24.0117 11.9648C24.0117 18.5742 18.6484 23.9297 12.0391 23.9297C5.42969 23.9297 0.0742188 18.5742 0.0742188 11.9648C0.0742188 5.35547 5.42969 0 12.0391 0C18.6484 0 24.0117 5.35547 24.0117 11.9648Z" fill="#FF5B24"/>
  <path d="M9.35156 15.9961L14.7266 8.00391H17.2031L11.8281 15.9961H9.35156ZM6.875 15.9961L12.25 8.00391H14.7266L9.35156 15.9961H6.875Z" fill="white"/>
</svg>